0
SECTION
2
HEADER
9
$INSUNITS
70
4
9
$ACADVER
1
AC1014
9
$HANDSEED
5
FFFF
0
ENDSEC
0
SECTION
2
TABLES
0
TABLE
2
VPORT
5
8
100
AcDbSymbolTable
0
ENDTAB
0
TABLE
2
LTYPE
5
5
100
AcDbSymbolTable
0
LTYPE
5
14
100
AcDbSymbolTableRecord
100
AcDbLinetypeTableRecord
2
BYBLOCK
70
0
0
LTYPE
5
15
100
AcDbSymbolTableRecord
100
AcDbLinetypeTableRecord
2
BYLAYER
70
0
0
LTYPE
5
16
100
AcDbSymbolTableRecord
100
AcDbLinetypeTableRecord
2
DASHED
70
0
3
Dashed __ __ __ __ __ __ __ __ __ __ __ __ __ _
72
65
73
2
40
0.75
49
0.5
74
0
49
-0.25
74
0
0
ENDTAB
0
TABLE
2
LAYER
5
2
100
AcDbSymbolTable
70
2
0
LAYER
5
50
100
AcDbSymbolTableRecord
100
AcDbLayerTableRecord
2
0
70
0
62
7
6
CONTINUOUS
0
ENDTAB
0
TABLE
2
STYLE
5
3
100
AcDbSymbolTable
70
1
0
STYLE
5
11
100
AcDbSymbolTableRecord
100
AcDbTextStyleTableRecord
2
STANDARD
70
0
0
ENDTAB
0
TABLE
2
VIEW
5
6
100
AcDbSymbolTable
70
0
0
ENDTAB
0
TABLE
2
UCS
5
7
100
AcDbSymbolTable
70
0
0
ENDTAB
0
TABLE
2
APPID
5
9
100
AcDbSymbolTable
70
2
0
APPID
5
12
100
AcDbSymbolTableRecord
100
AcDbRegAppTableRecord
2
ACAD
70
0
0
ENDTAB
0
TABLE
2
DIMSTYLE
5
A
100
AcDbSymbolTable
70
1
0
ENDTAB
0
TABLE
2
BLOCK_RECORD
5
1
100
AcDbSymbolTable
70
1
0
BLOCK_RECORD
5
1F
100
AcDbSymbolTableRecord
100
AcDbBlockTableRecord
2
*MODEL_SPACE
0
BLOCK_RECORD
5
1B
100
AcDbSymbolTableRecord
100
AcDbBlockTableRecord
2
*PAPER_SPACE
0
ENDTAB
0
ENDSEC
0
SECTION
2
BLOCKS
0
BLOCK
5
20
100
AcDbEntity
100
AcDbBlockBegin
2
*MODEL_SPACE
0
ENDBLK
5
21
100
AcDbEntity
100
AcDbBlockEnd
0
BLOCK
5
1C
100
AcDbEntity
100
AcDbBlockBegin
2
*PAPER_SPACE
0
ENDBLK
5
1D
100
AcDbEntity
100
AcDbBlockEnd
0
ENDSEC
0
SECTION
2
ENTITIES
0
LWPOLYLINE
5
100
100
AcDbEntity
8
0
100
AcDbPolyline
90
4
70
1
43
0.0
10
26.193017432380721
20
-17.654861141421133
10
27.219077862357732
20
-20.473939003778856
10
24.400000000000009
20
-21.499999433755853
10
23.373939570022991
20
-18.680921571398134
0
LWPOLYLINE
5
101
100
AcDbEntity
8
0
100
AcDbPolyline
90
4
70
1
43
0.0
10
-4.100000000000005
20
-5.499999433755872
10
-1.1455767409633777
20
-6.0209439667566595
10
-1.6665212739641659
20
-8.9753672257932866
10
-4.6209445330007934
20
-8.4544226927924964
0
LWPOLYLINE
5
102
100
AcDbEntity
8
0
100
AcDbPolyline
90
4
70
1
43
0.0
10
31.420944533000792
20
-8.4544226927924964
10
28.466521273964169
20
-8.9753672257932866
10
27.945576740963375
20
-6.0209439667566595
10
30.900000000000002
20
-5.499999433755872
0
LWPOLYLINE
5
103
100
AcDbEntity
8
0
100
AcDbPolyline
90
4
70
1
43
0.0
10
-0.41907786235772709
20
-20.473939003778856
10
0.60698256761928193
20
-17.654861141421133
10
3.4260604299770114
20
-18.680921571398134
10
2.3999999999999968
20
-21.499999433755853
0
CIRCLE
5
104
100
AcDbEntity
8
0
100
AcDbCircle
10
1.5000000000000002
20
1.25
30
0
40
0.70000000000000007
210
0
220
0
230
1
0
CIRCLE
5
105
100
AcDbEntity
8
0
100
AcDbCircle
10
25.300000000000004
20
1.25
30
0
40
0.6999999999999984
210
0
220
0
230
1
0
CIRCLE
5
106
100
AcDbEntity
8
0
100
AcDbCircle
10
1.5000000000000002
20
18.75
30
0
40
0.70000000000000007
210
0
220
0
230
1
0
CIRCLE
5
107
100
AcDbEntity
8
0
100
AcDbCircle
10
25.300000000000004
20
18.75
30
0
40
0.6999999999999984
210
0
220
0
230
1
0
CIRCLE
5
108
100
AcDbEntity
8
0
100
AcDbCircle
10
4.5000000000000009
20
-15.750000000000002
30
0
40
0.70000000000000062
210
0
220
0
230
1
0
CIRCLE
5
109
100
AcDbEntity
8
0
100
AcDbCircle
10
22.300000000000004
20
-15.750000000000002
30
0
40
0.6999999999999984
210
0
220
0
230
1
0
CIRCLE
5
110
100
AcDbEntity
8
0
100
AcDbCircle
10
13.400000000000002
20
-6.2499999999999991
30
0
40
4.0000000000000018
210
0
220
0
230
1
0
LWPOLYLINE
5
111
100
AcDbEntity
8
0
100
AcDbPolyline
90
32
70
1
43
0.0
10
33.399999999999999
20
-2.4999994337558724
42
0.41421356237309243
10
32.399999999999999
20
-1.4999994337558717
10
27.799999999999997
20
-1.4999994337558742
42
-0.41421356237309515
10
26.799999999999997
20
-0.49999943375587297
10
26.799999999999997
20
10.500000566244125
42
-0.41421356237309503
10
27.799999999999997
20
11.500000566244125
10
32.400000000000006
20
11.500000566244124
42
0.41421356237309503
10
33.400000000000006
20
12.500000566244125
10
33.399999999999991
20
33.000001132488251
42
0.41421356237309437
10
29.399999999999995
20
37.000001132488251
10
27.761407010626876
20
37.000001132488251
42
0.24539269440722447
10
24.478799693912169
20
35.2857152887753
42
-0.52223299295775327
10
2.3212003060878783
20
35.285715288775307
42
0.24539269440722195
10
-0.96140701062683442
20
37.000001132488251
10
-2.5999999999999979
20
37.000001132488244
42
0.4142135623730957
10
-6.599999999999997
20
33.000001132488244
10
-6.599999999999997
20
12.500000566244127
42
0.41421356237309503
10
-5.5999999999999961
20
11.500000566244125
10
-0.99999999999999756
20
11.500000566244124
42
-0.41421356237309503
10
2.4980018054066022e-15
20
10.500000566244124
10
2.6367796834847468e-15
20
-0.4999994337558753
42
-0.41421356237309515
10
-0.99999999999999767
20
-1.4999994337558755
10
-5.5999999999999979
20
-1.4999994337558764
42
0.41421356237309398
10
-6.599999999999997
20
-2.4999994337558777
10
-6.599999999999997
20
-23
42
0.41421356237309581
10
-2.5999999999999974
20
-26.999999999999996
10
-0.96140701062683576
20
-27
42
0.24539269440722231
10
2.3212003060878752
20
-25.285714156287057
42
-0.52223299295775327
10
24.478799693912165
20
-25.285714156287057
42
0.24539269440722467
10
27.761407010626876
20
-27.000000000000007
10
29.399999999999995
20
-27
42
0.4142135623730947
10
33.399999999999991
20
-23.000000000000004
0
ENDSEC
0
SECTION
2
OBJECTS
0
DICTIONARY
5
C
100
AcDbDictionary
3
ACAD_GROUP
350
D
3
ACAD_MLINESTYLE
350
17
0
DICTIONARY
5
D
100
AcDbDictionary
0
DICTIONARY
5
1A
330
C
100
AcDbDictionary
0
DICTIONARY
5
17
100
AcDbDictionary
0
ENDSEC
0
EOF
