0
SECTION
2
HEADER
9
$INSUNITS
70
4
9
$ACADVER
1
AC1014
9
$HANDSEED
5
FFFF
0
ENDSEC
0
SECTION
2
TABLES
0
TABLE
2
VPORT
5
8
100
AcDbSymbolTable
0
ENDTAB
0
TABLE
2
LTYPE
5
5
100
AcDbSymbolTable
0
LTYPE
5
14
100
AcDbSymbolTableRecord
100
AcDbLinetypeTableRecord
2
BYBLOCK
70
0
0
LTYPE
5
15
100
AcDbSymbolTableRecord
100
AcDbLinetypeTableRecord
2
BYLAYER
70
0
0
LTYPE
5
16
100
AcDbSymbolTableRecord
100
AcDbLinetypeTableRecord
2
DASHED
70
0
3
Dashed __ __ __ __ __ __ __ __ __ __ __ __ __ _
72
65
73
2
40
0.75
49
0.5
74
0
49
-0.25
74
0
0
ENDTAB
0
TABLE
2
LAYER
5
2
100
AcDbSymbolTable
70
2
0
LAYER
5
50
100
AcDbSymbolTableRecord
100
AcDbLayerTableRecord
2
0
70
0
62
7
6
CONTINUOUS
0
ENDTAB
0
TABLE
2
STYLE
5
3
100
AcDbSymbolTable
70
1
0
STYLE
5
11
100
AcDbSymbolTableRecord
100
AcDbTextStyleTableRecord
2
STANDARD
70
0
0
ENDTAB
0
TABLE
2
VIEW
5
6
100
AcDbSymbolTable
70
0
0
ENDTAB
0
TABLE
2
UCS
5
7
100
AcDbSymbolTable
70
0
0
ENDTAB
0
TABLE
2
APPID
5
9
100
AcDbSymbolTable
70
2
0
APPID
5
12
100
AcDbSymbolTableRecord
100
AcDbRegAppTableRecord
2
ACAD
70
0
0
ENDTAB
0
TABLE
2
DIMSTYLE
5
A
100
AcDbSymbolTable
70
1
0
ENDTAB
0
TABLE
2
BLOCK_RECORD
5
1
100
AcDbSymbolTable
70
1
0
BLOCK_RECORD
5
1F
100
AcDbSymbolTableRecord
100
AcDbBlockTableRecord
2
*MODEL_SPACE
0
BLOCK_RECORD
5
1B
100
AcDbSymbolTableRecord
100
AcDbBlockTableRecord
2
*PAPER_SPACE
0
ENDTAB
0
ENDSEC
0
SECTION
2
BLOCKS
0
BLOCK
5
20
100
AcDbEntity
100
AcDbBlockBegin
2
*MODEL_SPACE
0
ENDBLK
5
21
100
AcDbEntity
100
AcDbBlockEnd
0
BLOCK
5
1C
100
AcDbEntity
100
AcDbBlockBegin
2
*PAPER_SPACE
0
ENDBLK
5
1D
100
AcDbEntity
100
AcDbBlockEnd
0
ENDSEC
0
SECTION
2
ENTITIES
0
LWPOLYLINE
5
100
100
AcDbEntity
8
0
100
AcDbPolyline
90
18
70
1
43
0.0
10
18.01832374307136
20
19.667748164268168
42
0.20910953209195807
10
18.5
20
20.769118562588886
10
18.5
20
20.800000000000001
42
0.3639315031103047
10
17.260674351913771
20
22.277175982154578
10
0.13133825081608208
20
25.299999999999994
10
-7.2499999999999982
20
25.299999999999994
10
-7.2499999999999982
20
-1.4999999999999991
10
0.13133825081603545
20
-1.5000000000000002
10
17.260698206837141
20
1.5228282275331333
42
0.3639269427825223
10
18.500000000000007
20
3.0000000616567899
10
18.5
20
3.3212417968326036
42
0.22662620933164435
10
17.942430409930331
20
4.488214342541605
10
15.500000000000004
20
6.4606863607744467
10
13.038948075769156
20
8.7663034266328204
42
-0.32530462932504201
10
12.928422327144144
20
9.3441770330942422
42
0.22363742726196836
10
12.928422327144149
20
14.455822966905751
42
-0.32530462932504395
10
13.038948075769154
20
15.033696573367177
10
15.500000000000004
20
17.339313639225551
0
LWPOLYLINE
5
101
100
AcDbEntity
8
0
100
AcDbPolyline
90
8
70
1
43
0.0
10
13.056014173421357
20
19.160531217979717
10
10.987891403947136
20
17.223026728682818
42
-0.32530462932504256
10
10.404044884901658
20
17.15038315806347
42
0.19097962063718507
10
6.0178990024325474
20
17.714067133514163
42
-0.32530462932504062
10
5.471392927459215
20
17.931977565047596
10
3.6770767902257218
20
20.77895916945808
42
-0.65083064217818976
10
4.1869671156896278
20
21.537946111793119
10
12.801064061738876
20
20.017811356607961
42
-0.6179724932002667
0
LWPOLYLINE
5
102
100
AcDbEntity
8
0
100
AcDbPolyline
90
12
70
1
43
0.0
10
1.07700234149062
20
5.8644106281177617
10
-0.056448804404769029
20
7.6628197796051154
42
-0.14152549668433456
10
-0.13345114589538964
20
7.9294149425311939
10
-0.13345114589538976
20
15.870585057468809
42
-0.1415254966843339
10
-0.056448804404769654
20
16.137180220394885
10
1.0770023414906178
20
17.935589371882241
42
-0.55178753919448864
10
1.922997658509376
20
17.935589371882244
10
2.9334069764029405
20
16.332406587491125
42
-0.32530462932504278
10
2.8942239857479017
20
15.745364391906193
42
0.36257265727078991
10
2.8942239857479013
20
8.0546356080938093
42
-0.32530462932504345
10
2.9334069764029405
20
7.4675934125088794
10
1.9229976585093789
20
5.8644106281177617
42
-0.55178753919448897
0
CIRCLE
5
103
100
AcDbEntity
8
0
100
AcDbCircle
10
7.5
20
11.900000000000002
30
0
40
3.0499999999999994
210
0
220
0
230
1
0
CIRCLE
5
104
100
AcDbEntity
8
0
100
AcDbCircle
10
17
20
3.0000000000000004
30
0
40
0.70000000000000062
210
0
220
-0
230
1
0
CIRCLE
5
105
100
AcDbEntity
8
0
100
AcDbCircle
10
0
20
23.800000000000004
30
0
40
0.69999999999999996
210
0
220
-0
230
1
0
CIRCLE
5
106
100
AcDbEntity
8
0
100
AcDbCircle
10
0
20
0
30
0
40
0.69999999999999996
210
0
220
-0
230
1
0
LWPOLYLINE
5
107
100
AcDbEntity
8
0
100
AcDbPolyline
90
8
70
1
43
0.0
10
6.0178990024325465
20
6.0859328664858392
42
0.1909796206371854
10
10.404044884901662
20
6.6496168419365347
42
-0.32530462932504112
10
10.987891403947136
20
6.5769732713171845
10
13.056014173421357
20
4.6394687820202831
42
-0.61797249320026726
10
12.801064061738877
20
3.7821886433920415
10
4.1869671156896189
20
2.262053888206879
42
-0.65083064217818865
10
3.6770767902257169
20
3.0210408305419261
10
5.4713929274592132
20
5.8680224349524055
42
-0.32530462932504128
0
CIRCLE
5
108
100
AcDbEntity
8
0
100
AcDbCircle
10
17
20
20.800000000000001
30
0
40
0.70000000000000062
210
0
220
-0
230
1
0
CIRCLE
5
109
100
AcDbEntity
8
0
100
AcDbCircle
10
7.5
20
16.400000000000002
30
0
40
0.69999999999999951
210
0
220
0
230
1
0
CIRCLE
5
110
100
AcDbEntity
8
0
100
AcDbCircle
10
7.5
20
7.4000000000000004
30
0
40
0.69999999999999951
210
0
220
0
230
1
0
ENDSEC
0
SECTION
2
OBJECTS
0
DICTIONARY
5
C
100
AcDbDictionary
3
ACAD_GROUP
350
D
3
ACAD_MLINESTYLE
350
17
0
DICTIONARY
5
D
100
AcDbDictionary
0
DICTIONARY
5
1A
330
C
100
AcDbDictionary
0
DICTIONARY
5
17
100
AcDbDictionary
0
ENDSEC
0
EOF
